HIERARCHY
ROOT Hips
{
  OFFSET 53.4139 95.7159 11.2958
  CHANNELS 6 Xposition Yposition Zposition Zrotation Xrotation Yrotation
  JOINT spine
  {
    OFFSET 0 7.96568 0.458067
    CHANNELS 3 Zrotation Xrotation Yrotation
    JOINT spine1
    {
      OFFSET 0 10.2431 0
      CHANNELS 3 Zrotation Xrotation Yrotation
      JOINT spine2
      {
        OFFSET 0 9.81475 0
        CHANNELS 3 Zrotation Xrotation Yrotation
        JOINT Neck
        {
          OFFSET 0 25.1986 1.20138
          CHANNELS 3 Zrotation Xrotation Yrotation
          JOINT Head
          {
            OFFSET 0 7.61315 0
            CHANNELS 3 Zrotation Xrotation Yrotation
            End Site
            {
              OFFSET 0 18.4281 -6.07733
            }
          }
        }
        JOINT RightShoulder
        {
          OFFSET -4.1327 10.5992 -0.575451
          CHANNELS 3 Zrotation Xrotation Yrotation
          JOINT RightArm
          {
            OFFSET 0 13.9018 0
            CHANNELS 3 Zrotation Xrotation Yrotation
            JOINT RightArmRoll
            {
              OFFSET 0 7.01788 0
              CHANNELS 3 Zrotation Xrotation Yrotation
              JOINT RightForeArm
              {
                OFFSET 0 20.4406 0
                CHANNELS 3 Zrotation Xrotation Yrotation
                JOINT RightForeArmRoll
                {
                  OFFSET 0 7.87515 0
                  CHANNELS 3 Zrotation Xrotation Yrotation
                  JOINT RightHand
                  {
                    OFFSET 0 15.8037 0
                    CHANNELS 3 Zrotation Xrotation Yrotation
                    End Site
                    {
                      OFFSET 0 0 0
                    }
                  }
                }
              }
            }
          }
        }
        JOINT LeftShoulder
        {
          OFFSET 4.1327 10.5992 -0.575451
          CHANNELS 3 Zrotation Xrotation Yrotation
          JOINT LeftArm
          {
            OFFSET 0 13.9018 0
            CHANNELS 3 Zrotation Xrotation Yrotation
            JOINT LeftArmRoll
            {
              OFFSET 0 7.01789 0
              CHANNELS 3 Zrotation Xrotation Yrotation
              JOINT LeftForeArm
              {
                OFFSET 0 20.4406 0
                CHANNELS 3 Zrotation Xrotation Yrotation
                JOINT LeftForeArmRoll
                {
                  OFFSET 0 7.87515 0
                  CHANNELS 3 Zrotation Xrotation Yrotation
                  JOINT LeftHand
                  {
                    OFFSET 0 15.8037 0
                    CHANNELS 3 Zrotation Xrotation Yrotation
                    End Site
                    {
                      OFFSET 0 0 0
                    }
                  }
                }
              }
            }
          }
        }
      }
    }
  }
  JOINT RightUpLeg
  {
    OFFSET -7.06048 -1.2947 -1.0861
    CHANNELS 3 Zrotation Xrotation Yrotation
    JOINT RightUpLegRoll
    {
      OFFSET 0 18.5308 0
      CHANNELS 3 Zrotation Xrotation Yrotation
      JOINT RightLeg
      {
        OFFSET 0 -22.9476 0
        CHANNELS 3 Zrotation Xrotation Yrotation
        JOINT RightLegRoll
        {
          OFFSET 0 23.0226 0
          CHANNELS 3 Zrotation Xrotation Yrotation
          JOINT RightFoot
          {
            OFFSET 0 19.1625 0
            CHANNELS 3 Zrotation Xrotation Yrotation
            JOINT RightToeBase
            {
              OFFSET 0 16.0188 0
              CHANNELS 3 Zrotation Xrotation Yrotation
              End Site
              {
                OFFSET 0.00678979 7.75782 -0.894207
              }
            }
          }
        }
      }
    }
  }
  JOINT LeftUpLeg
  {
    OFFSET 7.06048 -1.2947 -1.0861
    CHANNELS 3 Zrotation Xrotation Yrotation
    JOINT LeftUpLegRoll
    {
      OFFSET 0 18.5309 0
      CHANNELS 3 Zrotation Xrotation Yrotation
      JOINT LeftLeg
      {
        OFFSET 0 22.9475 0
        CHANNELS 3 Zrotation Xrotation Yrotation
        JOINT LeftLegRoll
        {
          OFFSET 0 23.2355 0
          CHANNELS 3 Zrotation Xrotation Yrotation
          JOINT LeftFoot
          {
            OFFSET 0 18.9496 0
            CHANNELS 3 Zrotation Xrotation Yrotation
            JOINT LeftToeBase
            {
              OFFSET 0 16.0188 0
              CHANNELS 3 Zrotation Xrotation Yrotation
              End Site
              {
                OFFSET -0.0304289 7.75782 -0.894206
              }
            }
          }
        }
      }
    }
  }
}
MOTION
Frames: 9
Frame Time: 0.00208333
53.1512 95.7435 11.1813 0.499636 -1.40984 1.42339 -0.676589 -1.52421 0.26196 -1.3525 0.940308 0.598004 -1.3605 2.58508 0.620926 25.3634 21.5093 -9.15168 -18.1186 1.29043 -2.13905 18.904 -17.1924 -15.375 -14.4393 34.739 106.697 -1.11363e-006 -5.89903e-007 6.29123e-006 -19.9566 57.0198 23.6996 -4.83244e-006 3.6041e-007 -3.00166 8.03027 -4.95137 0.697637 -70.2487 5.15845 -1.12614 -100.724 18.7982 -22.4578 2.64769e-007 5.1153e-006 -5.35617e-006 -0.453414 0.467157 -0.402611 6.30047e-006 -2.10485e-006 3.01219 -8.03028 -4.95135 -0.697633 173.764 -2.55403 -0.861923 -180 7.01525e-015 178.831 177.46 4.89549 179.635 -4.1166e-006 -2.10886e-006 0.0780161 -19.3113 68.612 20.0542 8.15641 25.5346 -3.0857 -174.556 -0.609026 0.961608 4.5067e-006 -1.99009e-005 -1.14828 -1.7322 -4.3613 0.0819671 1.95888e-006 -6.39151e-006 -0.0402813 18.7099 67.9929 -19.5315 -8.1365 25.2327 3.48774 
53.1509 95.7445 11.1991 0.495649 -1.41589 1.41956 -0.674627 -1.52406 0.262462 -1.34821 0.941216 0.599326 -1.35623 2.58599 0.622176 25.3386 21.5096 -9.15137 -18.0912 1.29532 -2.14417 18.954 -17.1803 -15.3511 -14.3917 34.7861 106.615 -1.11363e-006 -5.89903e-007 6.29123e-006 -19.9073 56.8718 23.5805 -4.83244e-006 3.6041e-007 -3.00166 8.03027 -4.95137 0.697637 -70.2753 5.14833 -1.11689 -100.707 18.7902 -22.4661 2.64769e-007 5.1153e-006 -5.35617e-006 -0.456248 0.483913 -0.402684 6.30047e-006 -2.10485e-006 3.01218 -8.03028 -4.95135 -0.697633 173.764 -2.56289 -0.858597 -180 7.01525e-015 178.831 177.456 4.89062 179.635 -4.1166e-006 -2.10886e-006 0.0777912 -19.3092 68.6089 20.0519 8.15643 25.5349 -3.08539 -174.553 -0.61466 0.959046 4.5067e-006 -1.99009e-005 -1.14856 -1.7331 -4.36523 0.0821136 1.95888e-006 -6.39151e-006 -0.0402655 18.7058 67.9917 -19.5293 -8.1365 25.2327 3.48774 
53.157 95.7453 11.1997 0.491566 -1.42199 1.41509 -0.672594 -1.52396 0.262918 -1.34373 0.942168 0.600551 -1.35176 2.58694 0.623327 25.3126 21.5083 -9.15015 -18.0647 1.30246 -2.14883 19.0047 -17.1676 -15.3265 -14.342 34.8338 106.533 -1.11363e-006 -5.89903e-007 6.29123e-006 -19.8585 56.7201 23.4605 -4.83244e-006 3.6041e-007 -3.00166 8.03027 -4.95137 0.697637 -70.3033 5.13722 -1.10692 -100.688 18.7818 -22.4737 2.64769e-007 5.1153e-006 -5.35617e-006 -0.460567 0.502225 -0.402734 6.30047e-006 -2.10485e-006 3.01218 -8.03028 -4.95135 -0.697633 173.764 -2.57172 -0.856084 -180 7.01525e-015 178.831 177.453 4.88577 179.635 -4.1166e-006 -2.10886e-006 0.0775393 -19.3077 68.6064 20.0502 8.15644 25.5351 -3.08532 -174.551 -0.620247 0.956381 4.5067e-006 -1.99009e-005 -1.14881 -1.73408 -4.3695 0.0822457 1.95888e-006 -6.39151e-006 -0.0402501 18.7011 67.9906 -19.5268 -8.1365 25.2327 3.48774 
53.162 95.7432 11.1976 0.487418 -1.42812 1.41003 -0.670504 -1.52389 0.263329 -1.33909 0.943133 0.601678 -1.34713 2.5879 0.624377 25.2857 21.5056 -9.14813 -18.0388 1.31144 -2.15305 19.056 -17.1544 -15.301 -14.2895 34.8821 106.45 -1.11363e-006 -5.89903e-007 6.29123e-006 -19.8102 56.5648 23.3396 -4.83244e-006 3.6041e-007 -3.00166 8.03027 -4.95137 0.697637 -70.3324 5.1252 -1.09633 -100.669 18.7729 -22.4808 2.64769e-007 5.1153e-006 -5.35617e-006 -0.466221 0.521498 -0.402753 6.30047e-006 -2.10485e-006 3.01218 -8.03028 -4.95135 -0.697633 173.764 -2.58054 -0.854259 -180 7.01525e-015 178.831 177.45 4.88088 179.634 -4.1166e-006 -2.10886e-006 0.0772633 -19.3066 68.6043 20.0489 8.15644 25.5351 -3.08545 -174.549 -0.625777 0.953644 4.5067e-006 -1.99009e-005 -1.14905 -1.73512 -4.3741 0.0823629 1.95888e-006 -6.39151e-006 -0.040235 18.6959 67.9896 -19.5243 -8.1365 25.2327 3.48774 
53.1638 95.7434 11.2013 0.483231 -1.43423 1.40442 -0.668372 -1.52386 0.263697 -1.33434 0.944083 0.602704 -1.34239 2.58886 0.625324 25.2582 21.5021 -9.14545 -18.0134 1.3218 -2.15686 19.1079 -17.1405 -15.2745 -14.2339 34.9311 106.366 -1.11363e-006 -5.89903e-007 6.29123e-006 -19.7621 56.4064 23.2179 -4.83244e-006 3.6041e-007 -3.00166 8.03027 -4.95137 0.697637 -70.3623 5.11237 -1.08524 -100.649 18.7635 -22.4872 2.64769e-007 5.1153e-006 -5.35617e-006 -0.473059 0.541137 -0.402735 6.30047e-006 -2.10485e-006 3.01218 -8.03028 -4.95135 -0.697633 173.765 -2.58935 -0.852995 -180 7.01525e-015 178.831 177.448 4.87588 179.634 -4.1166e-006 -2.10886e-006 0.0769659 -19.3059 68.6025 20.0481 8.15644 25.535 -3.08575 -174.547 -0.631242 0.950866 4.5067e-006 -1.99009e-005 -1.14928 -1.73622 -4.37899 0.0824647 1.95888e-006 -6.39151e-006 -0.0402203 18.6905 67.9886 -19.5217 -8.1365 25.2327 3.48774 
53.1654 95.7385 11.1977 0.479035 -1.44029 1.39834 -0.666211 -1.52389 0.264024 -1.32953 0.944988 0.603628 -1.33758 2.58976 0.626169 25.2302 21.4979 -9.14224 -17.9882 1.33311 -2.16027 19.1603 -17.1259 -15.2471 -14.1745 34.9807 106.281 -1.11363e-006 -5.89903e-007 6.29123e-006 -19.7142 56.2449 23.0955 -4.83244e-006 3.6041e-007 -3.00165 8.03027 -4.95137 0.697637 -70.3925 5.09883 -1.07376 -100.63 18.7536 -22.4929 2.64769e-007 5.1153e-006 -5.35617e-006 -0.480931 0.560549 -0.40267 6.30047e-006 -2.10485e-006 3.01217 -8.03028 -4.95135 -0.697633 173.765 -2.59817 -0.852167 -180 7.01525e-015 178.83 177.447 4.87066 179.634 -4.1166e-006 -2.10886e-006 0.07665 -19.3054 68.601 20.0475 8.15642 25.5348 -3.08619 -174.544 -0.636636 0.948079 4.5067e-006 -1.99009e-005 -1.14949 -1.73736 -4.38414 0.0825507 1.95888e-006 -6.39151e-006 -0.040206 18.685 67.9878 -19.5193 -8.1365 25.2327 3.48774 
53.1694 95.7374 11.2015 0.474858 -1.44627 1.39181 -0.664036 -1.52396 0.264312 -1.32469 0.945821 0.604447 -1.33275 2.5906 0.626908 25.202 21.4936 -9.13862 -17.963 1.34494 -2.16333 19.2131 -17.1104 -15.2185 -14.1109 35.0312 106.193 -1.11363e-006 -5.89903e-007 6.29123e-006 -19.6665 56.0807 22.9725 -4.83244e-006 3.6041e-007 -3.00165 8.03027 -4.95137 0.697637 -70.4226 5.08467 -1.06198 -100.61 18.7433 -22.4979 2.64769e-007 5.1153e-006 -5.35617e-006 -0.489687 0.579138 -0.402553 6.30047e-006 -2.10485e-006 3.01217 -8.03028 -4.95135 -0.697633 173.766 -2.60701 -0.851648 -180 7.01525e-015 178.83 177.446 4.86514 179.634 -4.1166e-006 -2.10886e-006 0.0763184 -19.305 68.5995 20.0469 8.1564 25.5345 -3.08673 -174.542 -0.641949 0.945311 4.5067e-006 -1.99009e-005 -1.14969 -1.73853 -4.38953 0.0826203 1.95888e-006 -6.39151e-006 -0.0401921 18.6796 67.9873 -19.517 -8.1365 25.2327 3.48774 
53.1698 95.7389 11.214 0.470728 -1.45213 1.38489 -0.66186 -1.52408 0.264564 -1.31987 0.946552 0.605159 -1.32794 2.59133 0.627542 25.1739 21.4893 -9.13473 -17.9376 1.35685 -2.16603 19.2663 -17.094 -15.1887 -14.0425 35.0825 106.102 -1.11363e-006 -5.89903e-007 6.29123e-006 -19.6188 55.914 22.849 -4.83244e-006 3.6041e-007 -3.00165 8.03027 -4.95137 0.697637 -70.4522 5.06997 -1.05004 -100.591 18.7326 -22.5023 2.64769e-007 5.1153e-006 -5.35617e-006 -0.499176 0.59631 -0.402376 6.30047e-006 -2.10485e-006 3.01217 -8.03028 -4.95135 -0.697633 173.767 -2.61587 -0.851315 -180 7.01525e-015 178.83 177.445 4.85923 179.633 -4.1166e-006 -2.10886e-006 0.075974 -19.3046 68.598 20.0464 8.15638 25.5341 -3.08734 -174.54 -0.647173 0.942596 4.5067e-006 -1.99009e-005 -1.14989 -1.73973 -4.39513 0.082673 1.95888e-006 -6.39151e-006 -0.0401786 18.6746 67.987 -19.5151 -8.1365 25.2327 3.48774 
53.1743 95.7377 11.2143 0.466675 -1.45785 1.37764 -0.659697 -1.52425 0.264781 -1.31512 0.947151 0.605762 -1.32319 2.59193 0.628068 25.146 21.4855 -9.13068 -17.9118 1.3684 -2.16842 19.3199 -17.0766 -15.1576 -13.9688 35.1346 106.008 -1.11363e-006 -5.89903e-007 6.29123e-006 -19.5711 55.745 22.7249 -4.83244e-006 3.6041e-007 -3.00165 8.03027 -4.95137 0.697637 -70.4811 5.05483 -1.03802 -100.573 18.7216 -22.5058 2.64769e-007 5.1153e-006 -5.35617e-006 -0.509246 0.61147 -0.40213 6.30047e-006 -2.10485e-006 3.01216 -8.03028 -4.95135 -0.697633 173.768 -2.62478 -0.85104 -180 7.01525e-015 178.83 177.445 4.85288 179.633 -4.1166e-006 -2.10886e-006 0.0756194 -19.304 68.5963 20.0457 8.15635 25.5337 -3.08798 -174.538 -0.652301 0.939962 4.5067e-006 -1.99009e-005 -1.15008 -1.74094 -4.40091 0.0827085 1.95888e-006 -6.39151e-006 -0.0401655 18.6702 67.9871 -19.5135 -8.1365 25.2327 3.48774 
